<svg xmlns="http://www.w3.org/2000/svg" viewBox="0 0 24 24" fill="none" stroke="#f97316" stroke-width="2" stroke-linecap="round" stroke-linejoin="round">
  <path d="M12 22s8-4 8-10V5l-8-3-8 3v7c0 6 8 10 8 10z" fill="#18181b" stroke="none" opacity="0.2"/>
  
  <path d="M12 22s8-4 8-10V5l-8-3-8 3v7c0 6 8 10 8 10z" />
  
  <path d="M12 8a4 4 0 1 0 0 8 4 4 0 1 0 0-8z" fill="#f97316" fill-opacity="0.2"/>
  <circle cx="12" cy="12" r="2" fill="#f97316"/>
  
  <path d="M2 12h2" stroke-opacity="0.5"/>
  <path d="M20 12h2" stroke-opacity="0.5"/>
</svg>